<?xml version="1.0" encoding="UTF-8"?>
<svg id="Layer_1" data-name="Layer 1" xmlns="http://www.w3.org/2000/svg" xmlns:xlink="http://www.w3.org/1999/xlink" viewBox="0 0 197.59 79.74">
  <defs>
    <style>
      .cls-1 {
        fill: url(#linear-gradient);
      }

      .cls-1, .cls-2, .cls-3, .cls-4 {
        stroke-width: 0px;
      }

      .cls-2 {
        fill: #3c3c3b;
      }

      .cls-3 {
        fill: url(#linear-gradient-2);
      }

      .cls-4 {
        fill: url(#linear-gradient-3);
      }
    </style>
    <linearGradient id="linear-gradient" x1="104.03" y1="14.02" x2="149.69" y2="93.31" gradientUnits="userSpaceOnUse">
      <stop offset=".19" stop-color="#3db28c"/>
      <stop offset=".33" stop-color="#3dae8d"/>
      <stop offset=".45" stop-color="#3ea290"/>
      <stop offset=".58" stop-color="#418e97"/>
      <stop offset=".7" stop-color="#44739f"/>
      <stop offset=".79" stop-color="#475da7"/>
    </linearGradient>
    <linearGradient id="linear-gradient-2" x1="155.56" y1="-10.37" x2="201.19" y2="68.88" xlink:href="#linear-gradient"/>
    <linearGradient id="linear-gradient-3" x1="129.49" y1=".08" x2="175.32" y2="79.68" xlink:href="#linear-gradient"/>
  </defs>
  <path class="cls-2" d="M.3,10.05c0-.57.3-.89.87-.89h.97c.57,0,.87.32.87.89v5.47h6.86v-5.47c0-.57.3-.89.89-.89h.95c.57,0,.87.32.87.89v13.22c0,.59-.3.89-.87.89h-.95c-.59,0-.89-.3-.89-.89v-5.4H3v5.4c0,.59-.3.89-.87.89h-.97c-.57,0-.87-.3-.87-.89v-13.22Z"/>
  <path class="cls-2" d="M20.03,13.13c3.06,0,4.77,2.17,4.77,5.13,0,.46-.4.91-.93.91h-6.57c.17,1.94,1.6,2.96,3.23,2.96.99,0,1.82-.38,2.32-.7.53-.25.91-.19,1.18.3l.25.42c.25.49.17.91-.3,1.18-.7.44-1.96,1.08-3.65,1.08-3.57,0-5.78-2.58-5.78-5.64,0-3.31,2.24-5.64,5.47-5.64ZM22.14,17.55c-.04-1.5-.95-2.39-2.17-2.39-1.37,0-2.34.95-2.6,2.39h4.77Z"/>
  <path class="cls-2" d="M32,17.5h.44v-.25c0-1.41-.91-1.9-2.01-1.9-.91,0-1.73.34-2.24.61-.53.23-.93.15-1.18-.36l-.21-.4c-.25-.49-.17-.91.34-1.18.7-.36,1.92-.89,3.53-.89,2.79,0,4.45,1.56,4.45,4.29v5.85c0,.59-.3.89-.89.89h-.72c-.57,0-.87-.3-.87-.89v-.42c0-.3.04-.46.04-.46h-.04s-1.01,2.03-3.38,2.03c-1.96,0-3.57-1.27-3.57-3.23,0-3.15,3.88-3.67,6.29-3.67ZM30,22.36c1.5,0,2.47-1.52,2.47-2.83v-.4h-.44c-1.35,0-3.65.21-3.65,1.82,0,.72.55,1.41,1.63,1.41Z"/>
  <path class="cls-2" d="M37.38,10.05c0-.57.3-.89.87-.89h.93c.57,0,.87.32.87.89v10.53c0,1.06.44,1.25.84,1.29.38.04.65.27.65.76v.72c0,.55-.25.91-.89.91-1.44,0-3.27-.38-3.27-3.46v-10.75Z"/>
  <path class="cls-2" d="M43.59,15.67h-.57c-.57,0-.87-.3-.87-.89v-.36c0-.57.3-.89.89-.89h.61v-2.2c0-.57.32-.89.89-.89h.84c.57,0,.89.32.89.89v2.2h1.56c.57,0,.89.32.89.89v.36c0,.59-.32.89-.87.89h-1.58v4.18c0,1.6.99,1.92,1.73,2.01.65.06.89.27.89.87v.65c0,.63-.36.89-1.1.89-1.92,0-4.2-1.03-4.2-3.95v-4.64Z"/>
  <path class="cls-2" d="M50.47,10.05c0-.57.32-.89.89-.89h.91c.59,0,.89.32.89.89v4.35c0,.53-.06.91-.06.91h.04c.53-1.03,1.88-2.17,3.74-2.17,2.39,0,3.76,1.25,3.76,4.1v6.04c0,.59-.32.89-.89.89h-.91c-.59,0-.89-.3-.89-.89v-5.49c0-1.31-.34-2.2-1.69-2.2-1.88,0-3.1,1.52-3.1,3.57v4.12c0,.59-.3.89-.89.89h-.91c-.57,0-.89-.3-.89-.89v-13.22Z"/>
  <path class="cls-2" d="M68.37,10.05c0-.57.3-.89.87-.89h4.24c4.62,0,7.64,2.74,7.64,7.47s-3.02,7.52-7.64,7.52h-4.24c-.57,0-.87-.3-.87-.89v-13.22ZM73.33,21.81c3.04,0,4.98-1.79,4.98-5.17s-1.98-5.13-4.98-5.13h-2.26v10.3h2.26Z"/>
  <path class="cls-2" d="M88.51,17.5h.44v-.25c0-1.41-.91-1.9-2.01-1.9-.91,0-1.73.34-2.24.61-.53.23-.93.15-1.18-.36l-.21-.4c-.25-.49-.17-.91.34-1.18.7-.36,1.92-.89,3.53-.89,2.79,0,4.45,1.56,4.45,4.29v5.85c0,.59-.3.89-.89.89h-.72c-.57,0-.87-.3-.87-.89v-.42c0-.3.04-.46.04-.46h-.04s-1.01,2.03-3.38,2.03c-1.96,0-3.57-1.27-3.57-3.23,0-3.15,3.88-3.67,6.29-3.67ZM86.51,22.36c1.5,0,2.47-1.52,2.47-2.83v-.4h-.44c-1.35,0-3.65.21-3.65,1.82,0,.72.55,1.41,1.63,1.41Z"/>
  <path class="cls-2" d="M94.38,15.67h-.57c-.57,0-.87-.3-.87-.89v-.36c0-.57.3-.89.89-.89h.61v-2.2c0-.57.32-.89.89-.89h.84c.57,0,.89.32.89.89v2.2h1.56c.57,0,.89.32.89.89v.36c0,.59-.32.89-.87.89h-1.58v4.18c0,1.6.99,1.92,1.73,2.01.65.06.89.27.89.87v.65c0,.63-.36.89-1.1.89-1.92,0-4.2-1.03-4.2-3.95v-4.64Z"/>
  <path class="cls-2" d="M106.73,17.5h.44v-.25c0-1.41-.91-1.9-2.01-1.9-.91,0-1.73.34-2.24.61-.53.23-.93.15-1.18-.36l-.21-.4c-.25-.49-.17-.91.34-1.18.7-.36,1.92-.89,3.53-.89,2.79,0,4.45,1.56,4.45,4.29v5.85c0,.59-.3.89-.89.89h-.72c-.57,0-.87-.3-.87-.89v-.42c0-.3.04-.46.04-.46h-.04s-1.01,2.03-3.38,2.03c-1.96,0-3.57-1.27-3.57-3.23,0-3.15,3.88-3.67,6.29-3.67ZM104.72,22.36c1.5,0,2.47-1.52,2.47-2.83v-.4h-.44c-1.35,0-3.65.21-3.65,1.82,0,.72.55,1.41,1.63,1.41Z"/>
  <g>
    <path class="cls-2" d="M0,32.38c0-.57.3-.89.87-.89h4.05c1.48,0,2.22.13,2.85.4,1.52.63,2.51,2.07,2.51,4.1,0,1.77-.93,3.46-2.49,4.1v.04s.19.23.49.78l2.47,4.52c.36.61.08,1.06-.61,1.06h-1.14c-.49,0-.8-.19-1.03-.61l-2.64-4.98h-2.62v4.71c0,.59-.3.89-.87.89h-.97c-.57,0-.87-.3-.87-.89v-13.22ZM5.15,38.52c1.46,0,2.36-.91,2.36-2.39,0-.95-.36-1.71-1.18-2.05-.36-.17-.82-.25-1.63-.25h-2.01v4.69h2.45Z"/>
    <path class="cls-2" d="M17.23,35.46c3.06,0,4.77,2.17,4.77,5.13,0,.46-.4.91-.93.91h-6.57c.17,1.94,1.6,2.96,3.23,2.96.99,0,1.82-.38,2.32-.7.53-.25.91-.19,1.18.3l.25.42c.25.49.17.91-.3,1.18-.7.44-1.96,1.08-3.65,1.08-3.57,0-5.78-2.58-5.78-5.64,0-3.31,2.24-5.64,5.47-5.64ZM19.34,39.87c-.04-1.5-.95-2.39-2.17-2.39-1.37,0-2.34.95-2.6,2.39h4.77Z"/>
    <path class="cls-2" d="M23.26,44.43l.25-.38c.32-.44.68-.49,1.2-.21.51.27,1.31.74,2.41.74.93,0,1.5-.42,1.5-1.1,0-1.75-5.34-1.1-5.34-4.79,0-2.11,1.86-3.23,4.12-3.23,1.44,0,2.43.46,3,.78.49.25.55.7.32,1.18l-.21.38c-.25.51-.65.57-1.18.34-.46-.21-1.16-.53-2.05-.53s-1.46.38-1.46,1.06c0,1.77,5.34,1.08,5.34,4.75,0,1.9-1.6,3.31-4.1,3.31-1.73,0-2.93-.65-3.59-1.1-.49-.27-.53-.74-.21-1.2Z"/>
    <path class="cls-2" d="M37.76,35.46c3.06,0,4.77,2.17,4.77,5.13,0,.46-.4.91-.93.91h-6.57c.17,1.94,1.6,2.96,3.23,2.96.99,0,1.82-.38,2.32-.7.53-.25.91-.19,1.18.3l.25.42c.25.49.17.91-.3,1.18-.7.44-1.96,1.08-3.65,1.08-3.57,0-5.78-2.58-5.78-5.64,0-3.31,2.24-5.64,5.47-5.64ZM39.88,39.87c-.04-1.5-.95-2.39-2.17-2.39-1.37,0-2.34.95-2.6,2.39h4.77Z"/>
    <path class="cls-2" d="M49.73,39.83h.44v-.25c0-1.41-.91-1.9-2.01-1.9-.91,0-1.73.34-2.24.61-.53.23-.93.15-1.18-.36l-.21-.4c-.25-.49-.17-.91.34-1.18.7-.36,1.92-.89,3.53-.89,2.79,0,4.45,1.56,4.45,4.29v5.85c0,.59-.3.89-.89.89h-.72c-.57,0-.87-.3-.87-.89v-.42c0-.3.04-.46.04-.46h-.04s-1.01,2.03-3.38,2.03c-1.96,0-3.57-1.27-3.57-3.23,0-3.15,3.88-3.67,6.29-3.67ZM47.73,44.68c1.5,0,2.47-1.52,2.47-2.83v-.4h-.44c-1.35,0-3.65.21-3.65,1.82,0,.72.55,1.41,1.63,1.41Z"/>
    <path class="cls-2" d="M55.14,36.6c0-.57.3-.89.87-.89h.82c.57,0,.89.32.89.89v1.01c0,.4-.06.74-.06.74h.04c.42-1.29,1.6-2.72,3.12-2.72.59,0,.8.3.8.89v.82c0,.57-.34.89-.91.89-1.96,0-2.91,1.94-2.91,3.91v3.46c0,.59-.3.89-.87.89h-.93c-.57,0-.87-.3-.87-.89v-8.99Z"/>
    <path class="cls-2" d="M67.61,35.46c1.73,0,2.89.63,3.53,1.08.44.3.46.74.17,1.2l-.27.42c-.32.49-.68.49-1.18.23-.44-.3-1.16-.65-2.09-.65-1.98,0-3.27,1.5-3.27,3.34s1.29,3.38,3.36,3.38c1.06,0,1.9-.46,2.41-.82.53-.3.93-.23,1.2.27l.21.4c.25.46.19.89-.23,1.18-.65.49-1.96,1.25-3.82,1.25-3.57,0-5.85-2.51-5.85-5.64s2.28-5.64,5.85-5.64Z"/>
    <path class="cls-2" d="M73.42,32.38c0-.57.32-.89.89-.89h.91c.59,0,.89.32.89.89v4.35c0,.53-.06.91-.06.91h.04c.53-1.03,1.88-2.17,3.74-2.17,2.39,0,3.76,1.25,3.76,4.1v6.04c0,.59-.32.89-.89.89h-.91c-.59,0-.89-.3-.89-.89v-5.49c0-1.31-.34-2.2-1.69-2.2-1.88,0-3.1,1.52-3.1,3.57v4.12c0,.59-.3.89-.89.89h-.91c-.57,0-.89-.3-.89-.89v-13.22Z"/>
  </g>
  <path class="cls-2" d="M98.45,31.6c2.47,0,4.26.93,4.9,1.37.46.36.51.74.19,1.22l-.38.59c-.32.49-.7.53-1.22.23-.65-.38-1.73-.93-3.34-.93-3.27,0-5.09,2.36-5.09,5.19,0,3.15,2.22,5.32,5,5.32,2.51,0,3.8-1.65,3.8-1.65v-1.67h-1.44c-.57,0-.89-.32-.89-.89v-.57c0-.59.32-.89.89-.89h3c.57,0,.87.3.87.89v6.12c0,.59-.3.89-.87.89h-.53c-.57,0-.87-.3-.87-.72v-.36c0-.19.02-.36.02-.36h-.04s-1.5,1.69-4.39,1.69c-3.97,0-7.37-3.1-7.37-7.68s3.27-7.81,7.75-7.81Z"/>
  <path class="cls-2" d="M112.36,40.2h.44v-.25c0-1.41-.91-1.9-2.01-1.9-.91,0-1.73.34-2.24.61-.53.23-.93.15-1.18-.36l-.21-.4c-.25-.49-.17-.91.34-1.18.7-.36,1.92-.89,3.53-.89,2.79,0,4.45,1.56,4.45,4.29v5.85c0,.59-.3.89-.89.89h-.72c-.57,0-.87-.3-.87-.89v-.42c0-.3.04-.46.04-.46h-.04s-1.01,2.03-3.38,2.03c-1.96,0-3.57-1.27-3.57-3.23,0-3.15,3.88-3.67,6.29-3.67ZM110.36,45.05c1.5,0,2.47-1.52,2.47-2.83v-.4h-.44c-1.35,0-3.65.21-3.65,1.82,0,.72.55,1.41,1.63,1.41Z"/>
  <path class="cls-2" d="M118.23,38.36h-.57c-.57,0-.87-.3-.87-.89v-.36c0-.57.3-.89.89-.89h.61v-2.2c0-.57.32-.89.89-.89h.84c.57,0,.89.32.89.89v2.2h1.56c.57,0,.89.32.89.89v.36c0,.59-.32.89-.87.89h-1.58v4.18c0,1.6.99,1.92,1.73,2.01.65.06.89.27.89.87v.65c0,.63-.36.89-1.1.89-1.92,0-4.2-1.03-4.2-3.95v-4.64Z"/>
  <path class="cls-2" d="M129.84,35.83c3.06,0,4.77,2.17,4.77,5.13,0,.46-.4.91-.93.91h-6.57c.17,1.94,1.6,2.96,3.23,2.96.99,0,1.82-.38,2.32-.7.53-.25.91-.19,1.18.3l.25.42c.25.49.17.91-.3,1.18-.7.44-1.96,1.08-3.65,1.08-3.57,0-5.78-2.58-5.78-5.64,0-3.31,2.24-5.64,5.47-5.64ZM131.95,40.24c-.04-1.5-.95-2.39-2.17-2.39-1.37,0-2.34.95-2.6,2.39h4.77Z"/>
  <path class="cls-2" d="M135.48,37.07c-.17-.59.13-.99.74-.99h1.01c.53,0,.84.25.95.78l1.73,6.29c.13.57.21,1.14.21,1.14h.04s.08-.57.23-1.14l1.82-6.29c.11-.51.44-.76.97-.76h.8c.53,0,.84.25.97.76l1.79,6.29c.17.57.23,1.14.23,1.14h.04s.08-.57.23-1.14l1.71-6.29c.13-.53.44-.78.97-.78h.97c.63,0,.91.4.74.99l-2.77,9.04c-.15.51-.49.74-.99.74h-1.41c-.53,0-.87-.25-.99-.76l-1.63-5.38c-.17-.57-.25-1.16-.25-1.16h-.04s-.11.59-.27,1.16l-1.63,5.38c-.13.51-.44.76-.97.76h-1.46c-.51,0-.82-.23-.97-.74l-2.79-9.04Z"/>
  <path class="cls-2" d="M158.7,40.2h.44v-.25c0-1.41-.91-1.9-2.01-1.9-.91,0-1.73.34-2.24.61-.53.23-.93.15-1.18-.36l-.21-.4c-.25-.49-.17-.91.34-1.18.7-.36,1.92-.89,3.53-.89,2.79,0,4.45,1.56,4.45,4.29v5.85c0,.59-.3.89-.89.89h-.72c-.57,0-.87-.3-.87-.89v-.42c0-.3.04-.46.04-.46h-.04s-1.01,2.03-3.38,2.03c-1.96,0-3.57-1.27-3.57-3.23,0-3.15,3.88-3.67,6.29-3.67ZM156.69,45.05c1.5,0,2.47-1.52,2.47-2.83v-.4h-.44c-1.35,0-3.65.21-3.65,1.82,0,.72.55,1.41,1.63,1.41Z"/>
  <path class="cls-2" d="M164.14,48.87c.19.08.44.19.76.19.78,0,1.39-.68,1.71-1.44l.4-.95-4.1-9.56c-.27-.61,0-1.03.68-1.03h1.14c.53,0,.82.23.99.72l2.03,5.49c.19.57.4,1.46.4,1.46h.04s.19-.84.36-1.41l1.9-5.51c.15-.51.46-.74.99-.74h1.06c.65,0,.93.4.72,1.01l-4.43,11.36c-.74,1.96-2.3,2.83-3.88,2.83-.59,0-1.12-.17-1.5-.32-.51-.19-.63-.65-.4-1.14l.19-.46c.23-.49.59-.57.95-.49Z"/>
  <g>
    <polygon class="cls-1" points="133.19 74.11 133.19 58.43 129.56 58.43 129.56 79.74 148.17 69.29 146.13 66.84 133.19 74.11"/>
    <polygon class="cls-3" points="179.78 30.66 177.62 33.04 191.36 41.43 177.67 49.12 179.72 51.57 197.59 41.53 179.78 30.66"/>
    <polygon class="cls-4" points="129.56 21.45 133.19 21.45 133.19 5.91 146.07 13.78 148.23 11.4 129.56 0 129.56 21.45"/>
  </g>
</svg>