<svg xmlns="http://www.w3.org/2000/svg" viewBox="0 0 490 1440"><g xmlns="http://www.w3.org/2000/svg" transform="matrix(0 -1 1 0 -0 1440)"><defs><linearGradient id="sw-gradient-0" x1="0" x2="0" y1="1" y2="0"><stop stop-color="rgba(149, 117, 205, 1)" offset="0%" /><stop stop-color="rgba(149, 117, 205, 1)" offset="100%" /></linearGradient></defs><path style="transform:translate(0, 0px); opacity:1" fill="url(#sw-gradient-0)" d="M0,196L60,236.8C120,278,240,359,360,392C480,425,600,408,720,359.3C840,310,960,229,1080,179.7C1200,131,1320,114,1440,163.3C1560,212,1680,327,1800,326.7C1920,327,2040,212,2160,196C2280,180,2400,261,2520,310.3C2640,359,2760,376,2880,326.7C3000,278,3120,163,3240,163.3C3360,163,3480,278,3600,277.7C3720,278,3840,163,3960,114.3C4080,65,4200,82,4320,98C4440,114,4560,131,4680,138.8C4800,147,4920,147,5040,179.7C5160,212,5280,278,5400,261.3C5520,245,5640,147,5760,114.3C5880,82,6000,114,6120,171.5C6240,229,6360,310,6480,294C6600,278,6720,163,6840,147C6960,131,7080,212,7200,269.5C7320,327,7440,359,7560,383.8C7680,408,7800,425,7920,424.7C8040,425,8160,408,8280,367.5C8400,327,8520,261,8580,228.7L8640,196L8640,490L8580,490C8520,490,8400,490,8280,490C8160,490,8040,490,7920,490C7800,490,7680,490,7560,490C7440,490,7320,490,7200,490C7080,490,6960,490,6840,490C6720,490,6600,490,6480,490C6360,490,6240,490,6120,490C6000,490,5880,490,5760,490C5640,490,5520,490,5400,490C5280,490,5160,490,5040,490C4920,490,4800,490,4680,490C4560,490,4440,490,4320,490C4200,490,4080,490,3960,490C3840,490,3720,490,3600,490C3480,490,3360,490,3240,490C3120,490,3000,490,2880,490C2760,490,2640,490,2520,490C2400,490,2280,490,2160,490C2040,490,1920,490,1800,490C1680,490,1560,490,1440,490C1320,490,1200,490,1080,490C960,490,840,490,720,490C600,490,480,490,360,490C240,490,120,490,60,490L0,490Z" /></g></svg>