<svg width="65" height="62" viewBox="0 0 65 62" fill="none" xmlns="http://www.w3.org/2000/svg">
<path fill-rule="evenodd" clip-rule="evenodd" d="M48.75 46.4999C39.7754 55.0603 25.2246 55.0603 16.25 46.4999C7.27539 37.9395 7.27539 24.0603 16.25 15.4999C25.2246 6.93949 39.7754 6.93949 48.75 15.4999C57.7246 24.0603 57.7246 37.9395 48.75 46.4999ZM53.1752 31.1465C53.1752 41.9571 43.9874 50.7209 32.6538 50.7209C21.3201 50.7209 12.1323 41.9571 12.1323 31.1465C12.1323 20.3359 21.3201 11.5722 32.6538 11.5722C43.9874 11.5722 53.1752 20.3359 53.1752 31.1465Z" fill="white"/>
<path d="M18.4052 33.4628C22.4573 37.3278 29.0271 37.3278 33.0791 33.4628C37.1312 29.5977 37.1312 23.3312 33.0791 19.4661C29.0271 15.601 22.4573 15.601 18.4052 19.4661C14.3531 23.3312 14.3531 29.5977 18.4052 33.4628Z" fill="white"/>
<path fill-rule="evenodd" clip-rule="evenodd" d="M48.8711 36.938C48.8711 40.9059 45.4988 44.1226 41.3389 44.1226C37.1789 44.1226 33.8066 40.9059 33.8066 36.938C33.8066 32.9701 37.1789 29.7534 41.3389 29.7534C45.4988 29.7534 48.8711 32.9701 48.8711 36.938ZM45.947 37.0054C45.947 39.3943 43.9167 41.3308 41.4123 41.3308C38.9078 41.3308 36.8776 39.3943 36.8776 37.0054C36.8776 34.6166 38.9078 32.68 41.4123 32.68C43.9167 32.68 45.947 34.6166 45.947 37.0054Z" fill="white"/>
</svg>
